<?xml version="1.0" encoding="UTF-8"?>
<svg version="1.1" xmlns="http://www.w3.org/2000/svg" width="477" height="477">
<path d="M0 0 C0.7115625 0.62261719 1.423125 1.24523437 2.15625 1.88671875 C2.15625 2.54671875 2.15625 3.20671875 2.15625 3.88671875 C2.81625 3.88671875 3.47625 3.88671875 4.15625 3.88671875 C4.15625 4.54671875 4.15625 5.20671875 4.15625 5.88671875 C4.81625 5.88671875 5.47625 5.88671875 6.15625 5.88671875 C6.15625 6.54671875 6.15625 7.20671875 6.15625 7.88671875 C6.81625 7.88671875 7.47625 7.88671875 8.15625 7.88671875 C11.38987564 11.35515123 14.23498359 15.15424995 17.15625 18.88671875 C17.84589844 19.7271875 18.53554688 20.56765625 19.24609375 21.43359375 C37.42689208 44.61861181 42.01395926 75.06565895 39.875 103.64453125 C36.8403358 126.92974306 26.38585972 149.86542075 10.15625 166.88671875 C9.49625 166.88671875 8.83625 166.88671875 8.15625 166.88671875 C7.888125 167.47839844 7.62 168.07007813 7.34375 168.6796875 C-1.06177679 184.30180143 -25.78870615 194.47705609 -41.84375 199.88671875 C-72.1136574 208.47273253 -103.61621476 204.17950086 -130.96972656 188.98388672 C-136.15447808 185.94841599 -141.04043868 182.49089593 -145.84375 178.88671875 C-146.78863281 178.1803125 -147.73351562 177.47390625 -148.70703125 176.74609375 C-149.76470703 175.82570313 -149.76470703 175.82570313 -150.84375 174.88671875 C-150.84375 174.22671875 -150.84375 173.56671875 -150.84375 172.88671875 C-151.771875 172.51546875 -151.771875 172.51546875 -152.71875 172.13671875 C-155.19443687 170.68043236 -155.79500002 169.50859369 -156.84375 166.88671875 C-157.50375 166.88671875 -158.16375 166.88671875 -158.84375 166.88671875 C-160.50219885 165.00694126 -162.02440747 163.13340434 -163.53125 161.13671875 C-163.97750732 160.54979248 -164.42376465 159.96286621 -164.88354492 159.3581543 C-169.03149504 153.80444786 -172.55998293 147.99115754 -175.84375 141.88671875 C-176.30523437 141.04496094 -176.76671875 140.20320312 -177.2421875 139.3359375 C-191.03469411 113.13017494 -191.28652294 79.72123209 -183.21044922 51.68847656 C-181.77010098 47.24119908 -179.9115657 43.07312241 -177.84375 38.88671875 C-177.52277344 38.23654785 -177.20179688 37.58637695 -176.87109375 36.91650391 C-171.76066365 26.76122432 -165.57249373 18.19365184 -157.84375 9.88671875 C-157.03035156 8.99210937 -156.21695313 8.0975 -155.37890625 7.17578125 C-149.20660948 0.67336163 -142.35734079 -4.31889475 -134.84375 -9.11328125 C-133.8640625 -9.74234375 -132.884375 -10.37140625 -131.875 -11.01953125 C-89.22846978 -37.15772719 -38.63503538 -28.71092601 0 0 Z " fill="#31641A" transform="translate(312.84375,154.11328125)"/>
<path d="M0 0 C1.95087524 0.01063477 1.95087524 0.01063477 3.94116211 0.02148438 C4.63866074 0.02144409 5.33615936 0.02140381 6.05479431 0.0213623 C7.52490278 0.02670991 8.99501124 0.04426094 10.46484375 0.07324219 C12.71499875 0.11516903 14.96216603 0.11430483 17.21264648 0.10742188 C28.02973016 0.18675942 28.02973016 0.18675942 30.56762695 1.9230957 C32.57332144 5.04141524 32.3782993 8.13282672 31.65600586 11.61523438 C29.975717 15.28338791 27.82330762 18.5721043 25.59350586 21.92773438 C25.00166504 22.85255615 24.40982422 23.77737793 23.80004883 24.73022461 C21.30978254 28.6117488 18.76743565 32.45700616 16.19897461 36.28710938 C15.56604492 37.24101562 14.93311523 38.19492188 14.28100586 39.17773438 C13.73702148 39.96277344 13.19303711 40.7478125 12.63256836 41.55664062 C11.40939807 44.13508359 11.75482339 44.96060294 12.65600586 47.61523438 C14.27610247 49.86818123 15.91288104 52.02545942 17.65600586 54.17773438 C22.52952365 60.23578773 22.52952365 60.23578773 23.65600586 63.61523438 C24.64600586 63.86273438 24.64600586 63.86273438 25.65600586 64.11523438 C26.64600586 64.36273438 26.64600586 64.36273438 27.65600586 64.61523438 C28.95849101 68.52268984 28.83822246 72.25952136 28.85913086 76.33398438 C28.86483093 77.18827026 28.87053101 78.04255615 28.87640381 78.92272949 C28.88584497 80.72825891 28.89238428 82.53380549 28.89624023 84.33935547 C28.90596913 87.10479543 28.93700968 89.86949933 28.96850586 92.63476562 C28.97503383 94.38866746 28.98028511 96.14257461 28.98413086 97.89648438 C28.99647766 98.72466675 29.00882446 99.55284912 29.02154541 100.40612793 C28.99905366 106.18363882 28.99905366 106.18363882 27.28997803 108.3338623 C25.65600586 109.61523438 25.65600586 109.61523438 23.15600586 109.99023438 C20.65600586 109.61523438 20.65600586 109.61523438 19.01416016 108.58251953 C16.90275621 105.524153 17.33555612 102.3411611 17.42553711 98.76367188 C17.42763819 97.17382938 17.4282403 95.58398433 17.42749023 93.99414062 C17.44191616 91.49870079 17.46818384 89.00517101 17.52197266 86.51025391 C18.06314955 75.18966782 18.06314955 75.18966782 13.04663086 65.50585938 C11.59964644 64.1905362 10.13619352 62.89307767 8.65600586 61.61523438 C6.19946186 58.82107012 3.90331636 55.90620324 1.59350586 52.99023438 C1.00118164 52.27867187 0.40885742 51.56710938 -0.20141602 50.83398438 C-2.95627304 47.33188441 -4.32042762 45.52941893 -4.43774414 40.97851562 C-3.26760413 37.38033509 -1.83774519 34.60265037 0.21850586 31.42773438 C0.74553101 30.60233154 0.74553101 30.60233154 1.28320312 29.76025391 C4.46382098 24.80885902 7.7641553 19.9309301 11.08959961 15.07617188 C12.78526175 12.63185881 12.78526175 12.63185881 13.65600586 9.61523438 C9.36600586 9.61523438 5.07600586 9.61523438 0.65600586 9.61523438 C-0.00399414 11.26523438 -0.66399414 12.91523438 -1.34399414 14.61523438 C-2.39042381 16.42078683 -3.49712676 18.19253929 -4.65649414 19.92773438 C-5.23012695 20.81074219 -5.80375977 21.69375 -6.39477539 22.60351562 C-8.34399414 24.61523438 -8.34399414 24.61523438 -10.94946289 25.03320312 C-13.34399414 24.61523438 -13.34399414 24.61523438 -15.34399414 22.61523438 C-15.49147645 15.53608334 -11.53958326 11.01824977 -7.34399414 5.61523438 C-6.79533691 4.75236816 -6.24667969 3.88950195 -5.68139648 3.00048828 C-3.34399414 0.61523438 -3.34399414 0.61523438 0 0 Z " fill="#F3F7F0" transform="translate(216.343994140625,196.384765625)"/>
<path d="M0 0 C3.19019673 1.4708486 5.4388434 2.85293878 7.296875 5.95703125 C10.98029743 16.65941976 4.59576936 32.48765535 2 43 C1.69449219 44.25039063 1.38898438 45.50078125 1.07421875 46.7890625 C-0.70492895 53.70492895 -0.70492895 53.70492895 -3 56 C-8.33333333 56.33333333 -8.33333333 56.33333333 -11 55 C-11.05437607 53.41705218 -11.09296271 51.83355744 -11.125 50.25 C-11.14820313 49.36828125 -11.17140625 48.4865625 -11.1953125 47.578125 C-11 45 -11 45 -10.04370117 43.10644531 C-8.96166129 40.92262307 -8.51555381 39.11333029 -8.10546875 36.71875 C-7.9569043 35.88561279 -7.80833984 35.05247559 -7.65527344 34.1940918 C-7.5009082 33.3050415 -7.34654297 32.41599121 -7.1875 31.5 C-5.26294669 20.86917858 -2.73801948 10.44711531 0 0 Z " fill="#F4F8F0" transform="translate(213,250)"/>
<path d="M0 0 C4.89789256 0.110065 7.52436035 1.55560853 11.2890625 4.61328125 C13.63632051 7.46539643 13.21841371 10.30517132 13.09375 13.86328125 C12.6875 16.3125 12.6875 16.3125 10.6875 19.375 C7.03691915 21.7326668 3.98737498 22.7227633 -0.3125 22.3125 C-4.11016816 21.1111287 -7.3850455 19.8271416 -9.515625 16.34765625 C-10.65195235 13.44556532 -10.68433689 11.41114073 -10.3125 8.3125 C-5.53292139 0.02789708 -5.53292139 0.02789708 0 0 Z " fill="#F6FAF3" transform="translate(257.3125,180.6875)"/>
<path d="M0 0 C0.66 0 1.32 0 2 0 C2.07734375 0.81984375 2.1546875 1.6396875 2.234375 2.484375 C2.78994322 6.00297374 3.42007426 8.7973321 5 12 C7.98377798 13.73506032 10.68497262 14.46970259 14.03515625 15.265625 C17.76152037 16.18862428 20.00491977 17.67049315 23 20 C22.125 24.875 22.125 24.875 21 26 C15.33629684 26.413886 10.97694212 25.36347214 5.75 23.4375 C5.04359375 23.20998047 4.3371875 22.98246094 3.609375 22.74804688 C0.72950212 21.69809322 -1.37732395 20.91871557 -3.1328125 18.32861328 C-4.83993547 14.46624756 -5.69487879 11.16927274 -5 7 C-3.59797975 4.43482221 -2.04596569 2.09556486 0 0 Z " fill="#F1F7ED" transform="translate(248,214)"/>
<path d="M0 0 C3.02768904 0.67408926 4.13486646 2.07212693 6.0703125 4.4609375 C6.55133057 7.2197876 6.55133057 7.2197876 6.52441406 10.42285156 C6.52411194 11.62379456 6.52380981 12.82473755 6.52349854 14.06207275 C6.50285339 15.35385437 6.48220825 16.64563599 6.4609375 17.9765625 C6.45347321 19.31605179 6.44778116 20.65555202 6.44378662 21.99505615 C6.42854463 25.51345186 6.38927668 29.03118265 6.3449707 32.54931641 C6.30398614 36.14216111 6.2857689 39.7351137 6.265625 43.328125 C6.22277995 50.37266716 6.15454696 57.41675882 6.0703125 64.4609375 C4.7503125 64.1309375 3.4303125 63.8009375 2.0703125 63.4609375 C2.0703125 43.9909375 2.0703125 24.5209375 2.0703125 4.4609375 C-0.2396875 5.1209375 -2.5496875 5.7809375 -4.9296875 6.4609375 C-6.26098865 6.80229677 -7.59326898 7.14019706 -8.9296875 7.4609375 C-7.93612869 1.16839835 -6.40639608 0.26794812 0 0 Z " fill="#EBF6E4" transform="translate(269.9296875,241.5390625)"/>
<path d="M0 0 C0.33 0 0.66 0 1 0 C1.20302734 0.92232422 1.20302734 0.92232422 1.41015625 1.86328125 C2.89027575 7.43293033 2.89027575 7.43293033 7.25 11.0625 C11.00518815 12.00129704 14.1470223 12.23589659 18 12 C17.67 12.66 17.34 13.32 17 14 C14.27734375 14.4140625 14.27734375 14.4140625 10.9375 14.625 C9.83277344 14.69976562 8.72804687 14.77453125 7.58984375 14.8515625 C6.73519531 14.90054688 5.88054687 14.94953125 5 15 C5 15.66 5 16.32 5 17 C4.34 17 3.68 17 3 17 C3.2475 18.0725 3.495 19.145 3.75 20.25 C4 24 4 24 2.1875 26.25 C1.465625 26.8275 0.74375 27.405 0 28 C-2.13586678 31.20380017 -2.23132175 32.01939967 -2.125 35.6875 C-2.10695312 36.49574219 -2.08890625 37.30398437 -2.0703125 38.13671875 C-2.04710937 38.75160156 -2.02390625 39.36648437 -2 40 C-3.5 38.625 -3.5 38.625 -5 37 C-5 36.34 -5 35.68 -5 35 C-6.32 34.67 -7.64 34.34 -9 34 C-7.9171875 32.40671875 -7.9171875 32.40671875 -6.8125 30.78125 C-5.87404321 29.35479568 -4.93659633 27.92767657 -4 26.5 C-3.28457031 25.45585937 -3.28457031 25.45585937 -2.5546875 24.390625 C0.72037482 19.3376717 1.73367777 16.02663884 1 10 C-0.89814982 7.66593967 -0.89814982 7.66593967 -4.11694336 7.77294922 C-5.42800049 7.78342285 -6.73905762 7.79389648 -8.08984375 7.8046875 C-9.14033653 7.80893234 -9.14033653 7.80893234 -10.21205139 7.81326294 C-12.45404046 7.82446734 -14.69563175 7.84954878 -16.9375 7.875 C-18.44465563 7.88503152 -19.95181759 7.89415708 -21.45898438 7.90234375 C-25.30610148 7.92509398 -29.15299909 7.96238925 -33 8 C-33.99 8 -34.98 8 -36 8 C-35.67 6.68 -35.34 5.36 -35 4 C-23.78 4 -12.56 4 -1 4 C-0.67 2.68 -0.34 1.36 0 0 Z " fill="#68865C" transform="translate(246,190)"/>
<path d="M0 0 C1.11310547 0.00451172 2.22621094 0.00902344 3.37304688 0.01367188 C6.10292101 0.02538807 8.83268174 0.04179301 11.5625 0.0625 C12.0575 1.0525 12.0575 1.0525 12.5625 2.0625 C1.52558188 4.31822049 -9.22211253 4.26377315 -20.4375 4.0625 C-20.1075 3.0725 -19.7775 2.0825 -19.4375 1.0625 C-12.95400193 -0.11885474 -6.57535493 -0.05072974 0 0 Z " fill="#486C31" transform="translate(249.4375,353.9375)"/>
<path d="M0 0 C0.33 0 0.66 0 1 0 C1 1.65 1 3.3 1 5 C0.01 5.33 -0.98 5.66 -2 6 C-2 6.66 -2 7.32 -2 8 C-2.66 8 -3.32 8 -4 8 C-4.33 8.99 -4.66 9.98 -5 11 C-5.66 11 -6.32 11 -7 11 C-7.04125 11.99 -7.0825 12.98 -7.125 14 C-7.79169944 18.86591086 -10.61891586 22.54716872 -14 26 C-14.66 26 -15.32 26 -16 26 C-13.13111864 16.26629537 -6.96748294 7.30736016 0 0 Z " fill="#5E7C4C" transform="translate(151,169)"/>
<path d="M0 0 C3.53191322 3.43153914 6.7137505 6.97375062 9.8125 10.8125 C10.60269531 11.78832031 11.39289063 12.76414062 12.20703125 13.76953125 C13.09455078 14.87361328 13.09455078 14.87361328 14 16 C12 17 12 17 9 17 C8.34 18.98 7.68 20.96 7 23 C6 21 6 21 6.25 17.8125 C5.87686805 12.12223782 2.92719617 8.92719617 -1 5 C-0.34 4.34 0.32 3.68 1 3 C0.67 2.01 0.34 1.02 0 0 Z " fill="#4B6C3C" transform="translate(214,244)"/>
<path d="M0 0 C0.33 0 0.66 0 1 0 C1 11.55 1 23.1 1 35 C-0.32 35 -1.64 35 -3 35 C-2.67 34.01 -2.34 33.02 -2 32 C-1.86024314 29.74065744 -1.77455624 27.47781667 -1.71875 25.21484375 C-1.70034058 24.55795059 -1.68193115 23.90105743 -1.66296387 23.22425842 C-1.58441031 20.41749066 -1.51647635 17.61048979 -1.44775391 14.8034668 C-1.39603484 12.75297176 -1.33879452 10.70268222 -1.28125 8.65234375 C-1.25095703 7.42507568 -1.22066406 6.19780762 -1.18945312 4.93334961 C-1 2 -1 2 0 0 Z " fill="#456734" transform="translate(233,267)"/>
<path d="M0 0 C0.99 0.33 1.98 0.66 3 1 C3 3 3 3 1.125 4.9375 C0.42375 5.618125 -0.2775 6.29875 -1 7 C-3.13586678 10.20380017 -3.23132175 11.01939967 -3.125 14.6875 C-3.10695312 15.49574219 -3.08890625 16.30398437 -3.0703125 17.13671875 C-3.04710937 17.75160156 -3.02390625 18.36648437 -3 19 C-4.5 17.625 -4.5 17.625 -6 16 C-6 15.34 -6 14.68 -6 14 C-7.32 13.67 -8.64 13.34 -10 13 C-8.90353942 11.20360704 -7.79754852 9.41302846 -6.6875 7.625 C-6.07261719 6.62726563 -5.45773438 5.62953125 -4.82421875 4.6015625 C-3 2 -3 2 0 0 Z " fill="#517042" transform="translate(247,211)"/>
<path d="M0 0 C0.66 0.99 1.32 1.98 2 3 C6.91920235 5.60428359 10.34139667 6.3464451 16 6 C15.67 6.66 15.34 7.32 15 8 C12.27734375 8.4140625 12.27734375 8.4140625 8.9375 8.625 C7.83277344 8.69976562 6.72804687 8.77453125 5.58984375 8.8515625 C4.73519531 8.90054688 3.88054687 8.94953125 3 9 C3 9.66 3 10.32 3 11 C2.34 11 1.68 11 1 11 C1 12.32 1 13.64 1 15 C-0.98 15.99 -0.98 15.99 -3 17 C-2.67 16.34 -2.34 15.68 -2 15 C-0.6847666 11.05429979 -0.73158939 8.16036444 -1 4 C-1.66 3.01 -2.32 2.02 -3 1 C-2.01 0.67 -1.02 0.34 0 0 Z " fill="#607F50" transform="translate(248,196)"/>
<path d="M0 0 C0.66 0.33 1.32 0.66 2 1 C1.6875 2.9375 1.6875 2.9375 1 5 C0.01 5.33 -0.98 5.66 -2 6 C-2.33 6.66 -2.66 7.32 -3 8 C-3.804375 8.12375 -4.60875 8.2475 -5.4375 8.375 C-6.283125 8.58125 -7.12875 8.7875 -8 9 C-9.10836423 10.88316159 -9.10836423 10.88316159 -10 13 C-12.125 14.75 -12.125 14.75 -14 16 C-14.66 15.34 -15.32 14.68 -16 14 C-10.96965614 8.76433598 -6.07070905 4.00408469 0 0 Z " fill="#5A7641" transform="translate(172,149)"/>
<path d="M0 0 C2.31 0.33 4.62 0.66 7 1 C6.67 1.99 6.34 2.98 6 4 C7.65 4 9.3 4 11 4 C11 4.66 11 5.32 11 6 C12.65 6.33 14.3 6.66 16 7 C16 7.99 16 8.98 16 10 C18.97 10.495 18.97 10.495 22 11 C22 11.99 22 12.98 22 14 C17.82897489 12.48751613 14.21452966 10.44461265 10.4375 8.125 C9.32246094 7.44695312 8.20742187 6.76890625 7.05859375 6.0703125 C4.34477902 4.23337532 2.20627444 2.40586405 0 0 Z " fill="#546F42" transform="translate(167,332)"/>
<path d="M0 0 C1.98 0.99 1.98 0.99 4 2 C4 2.66 4 3.32 4 4 C4.66 4 5.32 4 6 4 C6 4.66 6 5.32 6 6 C6.66 6 7.32 6 8 6 C8 6.66 8 7.32 8 8 C8.66 8 9.32 8 10 8 C11.5078125 9.53125 11.5078125 9.53125 13.125 11.5 C13.66382813 12.1496875 14.20265625 12.799375 14.7578125 13.46875 C15.37269531 14.22671875 15.37269531 14.22671875 16 15 C15.67 15.66 15.34 16.32 15 17 C14.01 17 13.02 17 12 17 C12 16.01 12 15.02 12 14 C11.0409375 13.566875 11.0409375 13.566875 10.0625 13.125 C8 12 8 12 7 10 C6.319375 9.34 5.63875 8.68 4.9375 8 C3 6 3 6 3 4 C2.01 4 1.02 4 0 4 C0 2.68 0 1.36 0 0 Z " fill="#5D7B48" transform="translate(311,154)"/>
<path d="M0 0 C2 3 2 3 3 6 C2.40206327 8.35188447 1.74118205 10.68925595 1 13 C0.34 13 -0.32 13 -1 13 C-1.75241109 16.65456815 -2.40049704 20.31733897 -3 24 C-3.33 24 -3.66 24 -4 24 C-4.15265182 18.88284537 -3.62944468 14.17484605 -2.5625 9.1875 C-2.42779297 8.52041016 -2.29308594 7.85332031 -2.15429688 7.16601562 C-1.14608434 2.29216867 -1.14608434 2.29216867 0 0 Z " fill="#567842" transform="translate(130,206)"/>
<path d="M0 0 C0.33 0 0.66 0 1 0 C1.66 3.3 2.32 6.6 3 10 C2.34 9.67 1.68 9.34 1 9 C-0.91403076 8.80331266 -0.91403076 8.80331266 -3 8.8125 C-3.70125 8.79832031 -4.4025 8.78414062 -5.125 8.76953125 C-7.24524938 8.83487677 -7.24524938 8.83487677 -9 11 C-9.69748583 12.31747324 -10.36959957 13.64914193 -11 15 C-11.33 13.35 -11.66 11.7 -12 10 C-11.34 10 -10.68 10 -10 10 C-10 8.68 -10 7.36 -10 6 C-7.36 5.67 -4.72 5.34 -2 5 C-1.34 3.35 -0.68 1.7 0 0 Z " fill="#5F7A51" transform="translate(271,234)"/>
<path d="M0 0 C-2.52977291 2.52977291 -4.91089586 3.28555949 -8.25 4.5625 C-9.36890625 4.99691406 -10.4878125 5.43132812 -11.640625 5.87890625 C-14.77843125 6.92605787 -17.72811084 7.5587907 -21 8 C-21 7.34 -21 6.68 -21 6 C-17.91111478 3.94074319 -17.29064073 3.7609626 -13.8125 3.875 C-11.9253125 3.936875 -11.9253125 3.936875 -10 4 C-10 3.34 -10 2.68 -10 2 C-3.375 -1.125 -3.375 -1.125 0 0 Z " fill="#66884B" transform="translate(286,347)"/>
<path d="M0 0 C0 1.32 0 2.64 0 4 C-5.35121931 5.43336231 -10.49191603 6.40984815 -16 7 C-14.49135291 3.98270581 -12.19537486 3.63407458 -9.125 2.375 C-8.05507812 1.92898437 -6.98515625 1.48296875 -5.8828125 1.0234375 C-3 0 -3 0 0 0 Z " fill="#59774B" transform="translate(205,133)"/>
<path d="M0 0 C4.29 0 8.58 0 13 0 C13 0.99 13 1.98 13 3 C11.86111328 2.93039063 11.86111328 2.93039063 10.69921875 2.859375 C9.70535156 2.82328125 8.71148437 2.7871875 7.6875 2.75 C6.20830078 2.68039063 6.20830078 2.68039063 4.69921875 2.609375 C1.85790264 2.71852562 1.85790264 2.71852562 0.26953125 5.015625 C-0.14941406 5.67046875 -0.56835938 6.3253125 -1 7 C-1.66 7 -2.32 7 -3 7 C-1.125 2.25 -1.125 2.25 0 0 Z " fill="#4E6D40" transform="translate(217,206)"/>
<path d="M0 0 C0.66 0 1.32 0 2 0 C5.27838209 3.73536869 7.33938825 7.48086017 7.3125 12.5 C7.209375 13.655 7.10625 14.81 7 16 C5 15 5 15 3.7109375 11.62109375 C3.25801276 10.22901623 2.81302387 8.83433776 2.375 7.4375 C2.14554688 6.72658203 1.91609375 6.01566406 1.6796875 5.28320312 C1.11305792 3.52429047 0.55565742 1.76240961 0 0 Z " fill="#557A42" transform="translate(129,276)"/>
<path d="M0 0 C0.33 0 0.66 0 1 0 C1 1.65 1 3.3 1 5 C0.01 5.33 -0.98 5.66 -2 6 C-2 6.66 -2 7.32 -2 8 C-2.66 8 -3.32 8 -4 8 C-4.33 8.99 -4.66 9.98 -5 11 C-7.0625 12.1875 -7.0625 12.1875 -9 13 C-7.49806525 7.65978754 -3.82517494 3.86352256 0 0 Z " fill="#677F58" transform="translate(151,169)"/>
<path d="M0 0 C1.14806133 3.41975716 0.83383098 5.72148953 0.00390625 9.203125 C-0.22490234 10.1828125 -0.45371094 11.1625 -0.68945312 12.171875 C-0.93630859 13.18765625 -1.18316406 14.2034375 -1.4375 15.25 C-1.80198242 16.796875 -1.80198242 16.796875 -2.17382812 18.375 C-2.77442781 20.91871633 -3.38341641 23.46011941 -4 26 C-4.33 26 -4.66 26 -5 26 C-4.69761331 16.76208649 -3.06651115 8.71459681 0 0 Z " fill="#BDD2B4" transform="translate(219,267)"/>
<path d="M0 0 C3.77070649 1.6672132 5.0709374 3.33478106 7 7 C5.35 7 3.7 7 2 7 C1.34 8.98 0.68 10.96 0 13 C-1.36421031 10.27157939 -0.87807211 8.39046682 -0.5625 5.375 C-0.40974609 3.87066406 -0.40974609 3.87066406 -0.25390625 2.3359375 C-0.17011719 1.56507813 -0.08632812 0.79421875 0 0 Z " fill="#527344" transform="translate(221,254)"/>
<path d="M0 0 C2.65410635 1.32705317 2.86639196 2.60689643 4 5.3125 C5.24785356 8.26152892 6.53900489 11.14975507 8 14 C6.02 13.34 4.04 12.68 2 12 C1.34 8.04 0.68 4.08 0 0 Z " fill="#486935" transform="translate(250,214)"/>
<path d="M0 0 C-1 2 -1 2 -4 4 C-7.35546875 4.1953125 -7.35546875 4.1953125 -11.1875 4.125 C-12.45980469 4.10695312 -13.73210937 4.08890625 -15.04296875 4.0703125 C-16.50669922 4.03550781 -16.50669922 4.03550781 -18 4 C-12.40185694 0.26790462 -6.54467462 -0.27269478 0 0 Z " fill="#5B734B" transform="translate(224,129)"/>
<path d="M0 0 C1.98 0 3.96 0 6 0 C4.61811547 3.21043882 3.07578097 5.04936365 0.375 7.25 C-0.57246094 8.03117187 -0.57246094 8.03117187 -1.5390625 8.828125 C-2.02117187 9.21484375 -2.50328125 9.6015625 -3 10 C-3 8.68 -3 7.36 -3 6 C-2.01 5.67 -1.02 5.34 0 5 C0 3.35 0 1.7 0 0 Z " fill="#657E4E" transform="translate(315,321)"/>
<path d="M0 0 C1.21816406 0.03480469 1.21816406 0.03480469 2.4609375 0.0703125 C3.68683594 0.09738281 3.68683594 0.09738281 4.9375 0.125 C5.87722656 0.15980469 5.87722656 0.15980469 6.8359375 0.1953125 C6.8359375 0.5253125 6.8359375 0.8553125 6.8359375 1.1953125 C5.5778125 1.2571875 4.3196875 1.3190625 3.0234375 1.3828125 C0.82711648 1.5795153 0.82711648 1.5795153 -1.1640625 2.1953125 C-3.08150843 4.63840827 -3.08150843 4.63840827 -4.1640625 7.1953125 C-4.8240625 7.1953125 -5.4840625 7.1953125 -6.1640625 7.1953125 C-6.4940625 9.5053125 -6.8240625 11.8153125 -7.1640625 14.1953125 C-7.4940625 14.1953125 -7.8240625 14.1953125 -8.1640625 14.1953125 C-8.66953639 8.8878367 -7.39149813 6.37199391 -4.1640625 2.1953125 C-2.1640625 0.1953125 -2.1640625 0.1953125 0 0 Z " fill="#BBCFAF" transform="translate(255.1640625,180.8046875)"/>
<path d="M0 0 C0.33 0 0.66 0 1 0 C1 4.95 1 9.9 1 15 C-1.31 15.33 -3.62 15.66 -6 16 C-6.33 15.34 -6.66 14.68 -7 14 C-4.69 13.34 -2.38 12.68 0 12 C0 8.04 0 4.08 0 0 Z " fill="#D6E5CD" transform="translate(243,290)"/>
<path d="M0 0 C1.2109375 1.578125 1.2109375 1.578125 2 4 C0.98613427 6.4546223 -0.02723255 8.49546254 -1.375 10.75 C-1.71789062 11.35199219 -2.06078125 11.95398438 -2.4140625 12.57421875 C-3.26177818 14.05772119 -4.12905505 15.53001487 -5 17 C-5.578125 15.10546875 -5.578125 15.10546875 -6 13 C-5.00795408 11.66073801 -4.00573778 10.32901064 -3 9 C-1.85721495 6.04310774 -0.91424386 3.03451154 0 0 Z " fill="#68804E" transform="translate(340,289)"/>
<path d="M0 0 C0.66 0 1.32 0 2 0 C3.29243536 4.1196377 4.26252625 7.66831683 4 12 C3.34 12 2.68 12 2 12 C1.67 9.36 1.34 6.72 1 4 C-0.98 4.99 -0.98 4.99 -3 6 C-1.125 1.125 -1.125 1.125 0 0 Z " fill="#D4E3CA" transform="translate(248,214)"/>
<path d="M0 0 C1.859375 0.2578125 1.859375 0.2578125 4 1 C5.265625 2.7421875 5.265625 2.7421875 6.25 4.875 C6.58515625 5.57367188 6.9203125 6.27234375 7.265625 6.9921875 C8 9 8 9 8 12 C6.66081194 10.37982158 5.3288031 8.75370657 4 7.125 C3.2575 6.22007812 2.515 5.31515625 1.75 4.3828125 C0 2 0 2 0 0 Z " fill="#557B48" transform="translate(144,306)"/>
<path d="M0 0 C0.33 0 0.66 0 1 0 C1 2.97 1 5.94 1 9 C3.97 8.34 6.94 7.68 10 7 C9.34 8.32 8.68 9.64 8 11 C2.25 11.125 2.25 11.125 0 10 C0 6.7 0 3.4 0 0 Z " fill="#AFC6A4" transform="translate(202,295)"/>
<path d="M0 0 C2.97 1.65 5.94 3.3 9 5 C9 5.99 9 6.98 9 8 C6.625 7.8125 6.625 7.8125 4 7 C2.6875 4.4375 2.6875 4.4375 2 2 C1.34 2 0.68 2 0 2 C0 1.34 0 0.68 0 0 Z " fill="#60814C" transform="translate(295,143)"/>
<path d="M0 0 C2.05434121 3.36020151 2.20035193 5.73127202 1.875 9.625 C1.81054688 10.58664063 1.74609375 11.54828125 1.6796875 12.5390625 C1 15 1 15 -1.0546875 16.3359375 C-1.69664062 16.55507812 -2.33859375 16.77421875 -3 17 C-2.67 16.34 -2.34 15.68 -2 15 C-0.6847666 11.05429979 -0.73158939 8.16036444 -1 4 C-1.66 3.01 -2.32 2.02 -3 1 C-2.01 0.67 -1.02 0.34 0 0 Z " fill="#6D8762" transform="translate(248,196)"/>
<path d="M0 0 C0.33 0 0.66 0 1 0 C1.33 2.64 1.66 5.28 2 8 C1.21882813 7.76990234 1.21882813 7.76990234 0.421875 7.53515625 C-2.63278515 6.86017489 -5.63015971 6.65588882 -8.75 6.4375 C-9.92046875 6.35371094 -11.0909375 6.26992187 -12.296875 6.18359375 C-13.18890625 6.12300781 -14.0809375 6.06242188 -15 6 C-15 5.67 -15 5.34 -15 5 C-10.38 4.67 -5.76 4.34 -1 4 C-0.67 2.68 -0.34 1.36 0 0 Z " fill="#395E29" transform="translate(246,190)"/>
<path d="M0 0 C0.33 1.32 0.66 2.64 1 4 C0.34 4 -0.32 4 -1 4 C-0.34 7.3 0.32 10.6 1 14 C-1.0625 12.4375 -1.0625 12.4375 -3 10 C-2.85146936 5.76687689 -2.35931785 3.53897678 0 0 Z " fill="#D3E6C9" transform="translate(215,231)"/>
<path d="M0 0 C0.66 0.33 1.32 0.66 2 1 C2.49230769 8.26153846 2.49230769 8.26153846 0 12 C-0.66 12.66 -1.32 13.32 -2 14 C-1.7834375 13.0409375 -1.7834375 13.0409375 -1.5625 12.0625 C-0.82763202 8.06155212 -0.41418889 4.04495104 0 0 Z " fill="#EAF5E5" transform="translate(246,199)"/>
<path d="M0 0 C1.9375 0.8125 1.9375 0.8125 4 2 C4.33 2.99 4.66 3.98 5 5 C4.34 5 3.68 5 3 5 C3 4.34 3 3.68 3 3 C0.82961523 3.79299706 0.82961523 3.79299706 0.3671875 5.84765625 C0.20476562 6.57855469 0.04234375 7.30945313 -0.125 8.0625 C-0.29257813 8.79597656 -0.46015625 9.52945312 -0.6328125 10.28515625 C-0.75398437 10.85105469 -0.87515625 11.41695313 -1 12 C-2.45606519 7.47907032 -1.27032841 4.48351204 0 0 Z " fill="#C8DDBF" transform="translate(213,250)"/>
<path d="M0 0 C0.33 0 0.66 0 1 0 C2.25 6.625 2.25 6.625 0 10 C-0.99 9.67 -1.98 9.34 -3 9 C-2.01 6.03 -1.02 3.06 0 0 Z " fill="#628049" transform="translate(134,195)"/>
<path d="M0 0 C1.32 0 2.64 0 4 0 C3.71125 0.556875 3.4225 1.11375 3.125 1.6875 C1.9586747 4.08494645 0.9660119 6.51596939 0 9 C-0.66 8.67 -1.32 8.34 -2 8 C-2 6.68 -2 5.36 -2 4 C-1.34 4 -0.68 4 0 4 C0 2.68 0 1.36 0 0 Z " fill="#496B38" transform="translate(261,240)"/>
<path d="M0 0 C0.66 0 1.32 0 2 0 C0.6302836 3.99500618 -1.25722422 6.80009492 -4 10 C-3.52651586 5.8333396 -2.95303159 3.07115285 0 0 Z " fill="#E3EFDD" transform="translate(231,230)"/>
<path d="M0 0 C0.33 0 0.66 0 1 0 C1.16435547 0.84884766 1.16435547 0.84884766 1.33203125 1.71484375 C1.49058594 2.44832031 1.64914063 3.18179688 1.8125 3.9375 C1.96332031 4.66839844 2.11414063 5.39929688 2.26953125 6.15234375 C2.51058594 6.76207031 2.75164062 7.37179688 3 8 C3.99 8.33 4.98 8.66 6 9 C3.625 9.125 3.625 9.125 1 9 C0.34 8.34 -0.32 7.68 -1 7 C-0.625 3.375 -0.625 3.375 0 0 Z " fill="#CCDFC2" transform="translate(202,212)"/>
<path d="M0 0 C1.32 0.33 2.64 0.66 4 1 C1.47043472 4.0916909 -1.22454612 4.90931332 -5 6 C-5 5.34 -5 4.68 -5 4 C-4.01 4 -3.02 4 -2 4 C-1.34 2.68 -0.68 1.36 0 0 Z " fill="#5E7A49" transform="translate(291,341)"/>
<path d="M0 0 C0.33 0.66 0.66 1.32 1 2 C-0.0625 4.625 -0.0625 4.625 -2 7 C-5.1875 7.3125 -5.1875 7.3125 -8 7 C-8 6.34 -8 5.68 -8 5 C-7.05125 4.731875 -6.1025 4.46375 -5.125 4.1875 C-1.74732727 3.25013412 -1.74732727 3.25013412 0 0 Z " fill="#547742" transform="translate(211,216)"/>
<path d="M0 0 C2.97 0 5.94 0 9 0 C8.34 1.32 7.68 2.64 7 4 C5.68 3.67 4.36 3.34 3 3 C3 2.34 3 1.68 3 1 C2.01 0.67 1.02 0.34 0 0 Z " fill="#33541E" transform="translate(221,354)"/>
<path d="M0 0 C0.66 0.99 1.32 1.98 2 3 C0.35 4.98 -1.3 6.96 -3 9 C-3.66 7.68 -4.32 6.36 -5 5 C-3.68 5 -2.36 5 -1 5 C-0.67 3.35 -0.34 1.7 0 0 Z " fill="#607E47" transform="translate(330,307)"/>
<path d="M0 0 C3.0916909 2.52956528 3.90931332 5.22454612 5 9 C4.01 9 3.02 9 2 9 C-0.29013653 5.5647952 -0.17842973 4.014669 0 0 Z " fill="#5D7E4D" transform="translate(337,186)"/>
<path d="M0 0 C2.31 0.33 4.62 0.66 7 1 C6.67 1.99 6.34 2.98 6 4 C7.32 4.66 8.64 5.32 10 6 C6.62972148 6 5.93297304 5.50175992 3.3125 3.5625 C2.68988281 3.11003906 2.06726563 2.65757812 1.42578125 2.19140625 C0.95527344 1.79824219 0.48476562 1.40507812 0 1 C0 0.67 0 0.34 0 0 Z " fill="#788C6A" transform="translate(167,332)"/>
<path d="M0 0 C0.99 0 1.98 0 3 0 C3 2.31 3 4.62 3 7 C2.01 7 1.02 7 0 7 C0 4.69 0 2.38 0 0 Z " fill="#E5F2DD" transform="translate(273,299)"/>
<path d="M0 0 C1.60080151 4.00200378 0.29279692 7.04556236 -1 11 C-1.33 11 -1.66 11 -2 11 C-2 7.7 -2 4.4 -2 1 C-1.34 0.67 -0.68 0.34 0 0 Z " fill="#5E7D50" transform="translate(350,263)"/>
<path d="M0 0 C4.55737263 0.43820891 7.57653445 0.85041169 11 4 C6.94393835 3.53199289 3.53411321 3.12046792 0 1 C0 0.67 0 0.34 0 0 Z " fill="#D4E5CB" transform="translate(256,228)"/>
<path d="M0 0 C1.32 0.66 2.64 1.32 4 2 C2.69593116 4.01920337 1.36176581 6.01924973 0 8 C-0.33 8 -0.66 8 -1 8 C-0.67 5.36 -0.34 2.72 0 0 Z " fill="#3F632E" transform="translate(225,208)"/>
<path d="M0 0 C0.598125 0.20625 1.19625 0.4125 1.8125 0.625 C-2.9375 4.625 -2.9375 4.625 -5.1875 4.625 C-5.1875 3.635 -5.1875 2.645 -5.1875 1.625 C-2.1875 -0.375 -2.1875 -0.375 0 0 Z " fill="#577641" transform="translate(300.1875,337.375)"/>
<path d="M0 0 C0.66 0.33 1.32 0.66 2 1 C1.01 3.64 0.02 6.28 -1 9 C-1.66 9 -2.32 9 -3 9 C-3.33 7.68 -3.66 6.36 -4 5 C-3.34 5 -2.68 5 -2 5 C-1.34 3.35 -0.68 1.7 0 0 Z " fill="#426429" transform="translate(334,300)"/>
<path d="M0 0 C4.95 0.99 4.95 0.99 10 2 C5.64467851 4.17766075 4.53374042 4.03039555 0 3 C0 2.01 0 1.02 0 0 Z " fill="#619153" transform="translate(258,129)"/>
<path d="M0 0 C2.97 0 5.94 0 9 0 C9.33 0.99 9.66 1.98 10 3 C6.08393425 2.46599103 3.60661066 1.80330533 0 0 Z " fill="#CDDEC4" transform="translate(250,235)"/>
<path d="M0 0 C-0.99 0.495 -0.99 0.495 -2 1 C-2 1.66 -2 2.32 -2 3 C-3.98 3.33 -5.96 3.66 -8 4 C-8 3.34 -8 2.68 -8 2 C-4.77208445 -0.1519437 -3.71599191 -0.20086443 0 0 Z " fill="#6B8258" transform="translate(273,351)"/>
<path d="M0 0 C3.24299151 2.38957269 5.50902342 4.2047869 7 8 C4.625 7.375 4.625 7.375 2 6 C0.6875 2.875 0.6875 2.875 0 0 Z " fill="#6D8358" transform="translate(327,171)"/>
<path d="M0 0 C1.98 0.99 1.98 0.99 4 2 C4 2.66 4 3.32 4 4 C4.66 4 5.32 4 6 4 C6 4.66 6 5.32 6 6 C5.01 6 4.02 6 3 6 C3 5.34 3 4.68 3 4 C2.01 4 1.02 4 0 4 C0 2.68 0 1.36 0 0 Z " fill="#4E6A3C" transform="translate(311,154)"/>
</svg>
