<svg xmlns="http://www.w3.org/2000/svg" viewBox="0 0 64 64" role="img" aria-labelledby="title desc">
  <title>Golden Years Tab Icon</title>
  <desc>Minimal icon representing senior care for the browser tab.</desc>
  <defs>
    <linearGradient id="gy-favicon-gradient" x1="0" x2="1" y1="0" y2="1">
      <stop offset="0%" stop-color="#2f6b1f"/>
      <stop offset="100%" stop-color="#3f7f2a"/>
    </linearGradient>
  </defs>
  <circle cx="32" cy="32" r="30" fill="url(#gy-favicon-gradient)"/>
  <path
    d="M22 38.5c.3-2.3 1.4-5.6 3.3-8.4l1.6-2.4-2-2.7a2 2 0 0 1 3.2-2.4l2.4 3.2 3-4.8a2 2 0 1 1 3.4 2.1l-3.8 6a2 2 0 0 1-.28.36l-2.6 2.6V42a2 2 0 1 1-4 0v-7l-1.4 2.2-1.4 5.6a2 2 0 0 1-3.9-1z"
    fill="#ffffff"
  />
  <path
    d="M39 30a1.5 1.5 0 0 1 1.5 1.5v14a1.5 1.5 0 0 1-3 0v-14A1.5 1.5 0 0 1 39 30z"
    fill="#ffffff"
  />
</svg>
<?xml version="1.0" encoding="UTF-8"?>
<svg xmlns="http://www.w3.org/2000/svg" width="128" height="128" viewBox="0 0 128 128">
  <defs>
    <linearGradient id="g" x1="20%" y1="15%" x2="85%" y2="90%">
      <stop offset="0%" stop-color="#2e5f28"/>
      <stop offset="100%" stop-color="#3f7a34"/>
    </linearGradient>
  </defs>
  <circle cx="64" cy="64" r="60" fill="url(#g)"/>
  <path d="M62 36h12l-1.4 6.3c3.3 1.2 5.9 4 5.9 7.7 0 3.3-1.9 6.2-4.8 7.6V75c0 1.6-1.3 2.9-2.9 2.9-1.6 0-2.9-1.3-2.9-2.9V64h-3.6v11c0 1.6-1.3 2.9-2.9 2.9-1.6 0-2.9-1.3-2.9-2.9V62.3l-6-7.3c-.6-.7-.8-1.6-.6-2.5l2.8-9c.4-1.3 1.6-2.2 3-2.2Zm1.4 5.9-1.4 4.4 3.8 4.7h3.8l1.8-7.1c.4-1.5-1.3-2.9-2.8-2.3l-2.6 1Zm7-9.9c0-3.5 2.7-6.3 6-6.3s6 2.8 6 6.3-2.7 6.3-6 6.3-6-2.8-6-6.3Z" fill="#f7f9f5"/>
</svg>

